<svg xmlns="http://www.w3.org/2000/svg" fill-rule="evenodd" image-rendering="optimizeQuality" shape-rendering="geometricPrecision" viewBox="0 0 64 64" xmlns:v="https://vecta.io/nano"><path d="M40.5 8.5c2-1 4.4-1.3 7-1v-4h-8v10c17.2 2 24.4 11.7 21.5 29a21 21 0 0 1-33.5 11c.6-.1 1-.4 1.5-1a20 20 0 0 0 28.5-8c-2-3.2-4.6-3.8-8-2h-10v-1a170 170 0 0 1 14-2 5 5 0 0 1 4.5 2c3-13.7-2.3-22.3-16-26-1.4.4-2.6 1-3.5 2-1-.7-1.2-1.7-1-3v-13h12v8c-3.2.3-6.2 0-9-1z" fill="#4b5a63"/><path d="M17.5 5.5h-2c.7-5.3 1.3-5.3 2 0z" fill="#455a63"/><path d="M40.5 8.5h-1v-5h8v4c-2.6-.3-5 0-7 1z" fill="#80d8ff"/><path d="M15.5 5.5v2c-5.3-.7-5.3-1.3 0-2zm2 0c5.3.7 5.3 1.3 0 2v-2zm-2 2h2c-.7 5.3-1.3 5.3-2 0z" fill="#455a63"/><path d="M35.5 14.5a74.6 74.6 0 0 1-7 4.5c1 .3 1.6.8 2 1.5a15 15 0 0 1-5 .5l-7 9.5c-.7-1.5-.5-3.2.5-5C22 20 26.5 16 32.5 14c1.3-.7 2.3-.6 3 .5z" fill="#4e5c65" opacity=".9"/><path d="M35.5 14.5h2c-.2 1.3.1 2.3 1 3-1.2.8-2.5 1.5-4 2-1.4-1.4-2.4-1-3 1h-1c-.4-.7-1-1.2-2-1.5a74.6 74.6 0 0 0 7-4.5z" fill="#f3a6a3"/><path d="M39.5 41.5h-2c0-1.3-.7-2-2-2h-2a21 21 0 0 0 3-13c-6.8-.3-12.8 1.7-18 6v-2a230 230 0 0 1 7-9.5 15 15 0 0 0 5-.5h1c1.3.2 2.3-.1 3-1 1.5-.5 2.8-1.2 4-2 1-1 2-1.6 3.5-2 13.7 3.7 19 12.3 16 26a5 5 0 0 0-4.5-2l-14 2z" fill="#f9897f"/><path d="M34.5 19.5c-.7 1-1.7 1.2-3 1 .6-2 1.6-2.4 3-1z" fill="#797075"/><path d="M7.5 21.5h-2c.7-4 1.3-4 2 0z" fill="#455a63"/><path d="M44.5 19.5c1.6-.2 3 .3 4 1.5-2 .8-3.3.3-4-1.5z" fill="#5a5f67"/><path d="M5.5 21.5v2c-4-.7-4-1.3 0-2zm2 0c4 .7 4 1.3 0 2v-2zm-2 2h2c-.7 4-1.3 4-2 0z" fill="#455a63"/><path d="M42.5 29.5c1.8.1 2.2.8 1 2-.8-.5-1-1-1-2z" fill="#8d6c6e"/><path d="M51.5 33.5c1.8.1 2.2.8 1 2-.8-.5-1-1-1-2z" fill="#9a7070"/><path d="M33.5 39.5h2c1.3 0 2 .7 2 2h2v1c1 1 2.4 1.3 4 1 .7 4 1.3 4 2 0 1.6.3 3-.1 4-1 3.4-1.8 6-1.2 8 2a20 20 0 0 1-28.5 8c-.4.6-1 1-1.5 1h-1a18.4 18.4 0 0 1 .5-6c2.8-2.3 5-5 6.5-8z" fill="#eb7972"/><path d="M35.5 39.5c1.3 0 2 .7 2 2-1.3 0-2-.7-2-2z" fill="#5c5f67"/><path d="M39.5 42.5h10c-1 1-2.4 1.3-4 1-.7 4-1.3 4-2 0-1.6.3-3-.1-4-1z" fill="#9f686a"/><path d="M34.5 45.5c.6-1.3 1.2-1.3 2 0-.5 1-1 1-2 0z" fill="#6f6166"/><path d="M51.5 45.5c1.8.1 2.2.8 1 2-.8-.5-1-1-1-2z" fill="#946769"/><path d="M33.5 39.5a26 26 0 0 1-6.5 8 18.4 18.4 0 0 0-.5 6 32.4 32.4 0 0 1-8.5 8c-2-4-4.7-7.4-8.5-10-1.5-2.8-3.8-4.5-7-5-1-1-1.2-2-.5-3 3.2-5 7.7-7.8 13.5-8.5a10.5 10.5 0 0 1 3-2.5c5.2-4.3 11.2-6.3 18-6a21 21 0 0 1-3 13z" fill="#4f616a"/><path d="M10.5 38.5c3.5.1 4 1.4 1.5 4-2 3-4.6 3.6-7.5 1.5a45.5 45.5 0 0 1 6-5.5z" fill="#dbe0e2"/><path d="M29.5 28.5h5a19 19 0 0 1-16 19.5c-1-2-2.4-2.5-4-1.5l3 4c-1.6 2.3-3.5 2.3-5.5 0-1-1.3-1.3-2.6-1-4a37 37 0 0 1 18.5-18z" fill="#f8f9f9"/><path d="M20.5 38.5c1.8.1 2.2.8 1 2-.8-.5-1-1-1-2zm3-3c1.8.1 2.2.8 1 2-.8-.5-1-1-1-2z" fill="#64767d"/><path d="M22.5 49.5c1.7.3 2.2 1.3 1.5 3a21.5 21.5 0 0 1-5 6c-1.2-1.5-1.5-3.2-1-5 1.4-1.6 3-3 4.5-4z" fill="#dce1e3"/><path d="M45.5 48.5c3.7 0 4 .6.5 2a2.4 2.4 0 0 1-.5-2z" fill="#485a64"/><path d="M33.5 51.5c1.8.1 2.2.8 1 2-.8-.5-1-1-1-2z" fill="#836a6d"/><path d="M9.5 51.5a7 7 0 0 1-2 4c-.7 0-1 .3-1 1-.7 0-1 .3-1 1h-3c.4-4 2.8-6 7-6z" fill="#42555f" opacity=".6"/><path d="M7.5 55.5h3c-.3 3.7-2.3 5.7-6 6-.1-1.5.3-2.8 1-4 .7 0 1-.3 1-1 .7 0 1-.3 1-1z" fill="#465865"/></svg>
